custom-analysis
version=1
nRows=6
nColumns=98
inDegrees=no

This file contains tibia displacement and acting force.

Units are S.I. units (seconds, meters, Newtons, ...)
Angles are in degrees.

endheader
time	APT	SIT	knee_angle	aACL_R_force	pACL_R_force	aPCL_R_force	pPCL_R_force	aMCL_R_force	mMCL_R_force	pMCL_R_force	aLCL_R_force	mLCL_R_force	pLCL_R_force	aPCL_L_force	pPCL_L_force	aMCL_L_force	aLCL_L_force	aACL_R_length	pACL_R_length	aPCL_R_length	pPCL_R_length	aMCL_R_length	mMCL_R_length	pMCL_R_length	aLCL_R_length	mLCL_R_length	pLCL_R_length	aPCL_L_length	pPCL_L_length	aMCL_L_length	aLCL_L_length	aACL_R_strain	pACL_R_strain	aPCL_R_strain	pPCL_R_strain	aMCL_R_strain	mMCL_R_strain	pMCL_R_strain	aLCL_R_strain	mLCL_R_strain	pLCL_R_strain	aPCL_L_strain	pPCL_L_strain	aMCL_L_strain	aLCL_L_strain	femur_lat_meniscii_r.femur_lat_r.force.X	femur_lat_meniscii_r.femur_lat_r.force.Y	femur_lat_meniscii_r.femur_lat_r.force.Z	femur_lat_meniscii_r.femur_lat_r.torque.X	femur_lat_meniscii_r.femur_lat_r.torque.Y	femur_lat_meniscii_r.femur_lat_r.torque.Z	femur_lat_meniscii_r.meniscus_lat_r.force.X	femur_lat_meniscii_r.meniscus_lat_r.force.Y	femur_lat_meniscii_r.meniscus_lat_r.force.Z	femur_lat_meniscii_r.meniscus_lat_r.torque.X	femur_lat_meniscii_r.meniscus_lat_r.torque.Y	femur_lat_meniscii_r.meniscus_lat_r.torque.Z	femur_med_meniscii_r.femur_med_r.force.X	femur_med_meniscii_r.femur_med_r.force.Y	femur_med_meniscii_r.femur_med_r.force.Z	femur_med_meniscii_r.femur_med_r.torque.X	femur_med_meniscii_r.femur_med_r.torque.Y	femur_med_meniscii_r.femur_med_r.torque.Z	femur_med_meniscii_r.meniscus_med_r.force.X	femur_med_meniscii_r.meniscus_med_r.force.Y	femur_med_meniscii_r.meniscus_med_r.force.Z	femur_med_meniscii_r.meniscus_med_r.torque.X	femur_med_meniscii_r.meniscus_med_r.torque.Y	femur_med_meniscii_r.meniscus_med_r.torque.Z	femur_med_tibia_r.tibia_upper_r.force.X	femur_med_tibia_r.tibia_upper_r.force.Y	femur_med_tibia_r.tibia_upper_r.force.Z	femur_med_tibia_r.tibia_upper_r.torque.X	femur_med_tibia_r.tibia_upper_r.torque.Y	femur_med_tibia_r.tibia_upper_r.torque.Z	femur_med_tibia_r.femur_med_r.force.X	femur_med_tibia_r.femur_med_r.force.Y	femur_med_tibia_r.femur_med_r.force.Z	femur_med_tibia_r.femur_med_r.torque.X	femur_med_tibia_r.femur_med_r.torque.Y	femur_med_tibia_r.femur_med_r.torque.Z	femur_lat_tibia_r.tibia_upper_r.force.X	femur_lat_tibia_r.tibia_upper_r.force.Y	femur_lat_tibia_r.tibia_upper_r.force.Z	femur_lat_tibia_r.tibia_upper_r.torque.X	femur_lat_tibia_r.tibia_upper_r.torque.Y	femur_lat_tibia_r.tibia_upper_r.torque.Z	femur_lat_tibia_r.femur_lat_r.force.X	femur_lat_tibia_r.femur_lat_r.force.Y	femur_lat_tibia_r.femur_lat_r.force.Z	femur_lat_tibia_r.femur_lat_r.torque.X	femur_lat_tibia_r.femur_lat_r.torque.Y	femur_lat_tibia_r.femur_lat_r.torque.Z	femur_lat_meniscii_force_r	femur_med_meniscii_force_r	femur_lat_tibia_force_r	femur_med_tibia_force_r
      0.16510326	      0.01284190	      0.01743366	     57.25561548	     -4.61437390	      0.00000000	    586.97241959	    380.86742819	      0.00000000	      0.00000000	      0.00000000	      0.00000000	      0.00000000	      0.00000000	      0.00000000	      0.00000000	      0.00000001	      0.00000000	      0.03112908	      0.02385265	      0.03499801	      0.03246813	      0.05957709	      0.05922362	      0.05630333	      0.05246237	      0.04771844	      0.04283635	      0.01525851	      0.01651186	      0.06550154	      0.04489616	      0.00398590	     -0.04812888	      0.12550790	      0.08633402	     -0.00749514	     -0.00953074	     -0.04128645	     -0.06279033	     -0.15270543	     -0.18161758	      0.00000079	     -0.32847694	      0.00000060	     -0.00000086	     95.35619030	    162.60855189	     16.26020178	    -10.42477754	      2.29163269	     37.35472931	    -95.35619030	   -162.60855189	    -16.26020178	      4.39317898	     -2.77444597	      2.84525329	     22.62801057	     19.71853366	     11.11913165	     -4.03703926	     -0.51735327	      9.08518129	    -22.62801057	    -19.71853366	    -11.11913165	     -0.22790772	      0.25253905	      0.06382574	   -781.97462778	   -701.89138953	    224.02622297	    -16.18160871	     17.60524478	     -1.36384191	    781.97462778	    701.89138953	   -224.02622297	    103.79787526	    -14.16958039	    317.95696093	      0.00000000	      0.00000000	      0.00000000	      0.00000000	      0.00000000	      0.00000000	      0.00000000	      0.00000000	      0.00000000	      0.00000000	      0.00000000	      0.00000000	    189.20554521	     32.00753850	      0.00000000	   1074.39452240
      0.16582028	      0.01288595	      0.01757200	     57.64283696	     -4.78615548	      0.00000000	    594.60717434	    385.15844994	      0.00000000	      0.00000000	      0.00000000	      0.00000000	      0.00000000	      0.00000000	      0.00000000	      0.00000000	      0.00000001	      0.00000000	      0.03112021	      0.02384803	      0.03504095	      0.03249287	      0.05961336	      0.05923058	      0.05629127	      0.05243737	      0.04767673	      0.04278600	      0.01525851	      0.01651186	      0.06550154	      0.04489616	      0.00369978	     -0.04831345	      0.12688895	      0.08716177	     -0.00689086	     -0.00941434	     -0.04149185	     -0.06323701	     -0.15344607	     -0.18257936	      0.00000079	     -0.32847694	      0.00000060	     -0.00000086	     96.15489592	    163.03893146	     16.90392716	    -10.70324201	      2.31290213	     37.65933883	    -96.15489592	   -163.03893146	    -16.90392716	      4.42375407	     -2.81362117	      2.88983066	     22.87585961	     19.43817538	     10.91406983	     -3.96110700	     -0.51932504	      9.18076445	    -22.87585961	    -19.43817538	    -10.91406983	     -0.22599082	      0.25666519	      0.06318319	   -790.73616216	   -701.15941520	    223.78704732	    -16.09135009	     17.73717654	     -1.31100075	    790.73616216	    701.15941520	   -223.78704732	    103.64616663	    -14.29966955	    321.45017261	      0.00000000	      0.00000000	      0.00000000	      0.00000000	      0.00000000	      0.00000000	      0.00000000	      0.00000000	      0.00000000	      0.00000000	      0.00000000	      0.00000000	    190.03473349	     31.94158004	      0.00000000	   1080.26332263
      0.16603888	      0.01289910	      0.01761421	     57.76089060	     -4.75292823	      0.00000000	    596.89513023	    386.37054770	      0.00000000	      0.00000000	      0.00000000	      0.00000000	      0.00000000	      0.00000000	      0.00000000	      0.00000000	      0.00000001	      0.00000000	      0.03111748	      0.02384664	      0.03505404	      0.03250046	      0.05962444	      0.05923278	      0.05628774	      0.05242963	      0.04766394	      0.04277064	      0.01525851	      0.01651186	      0.06550154	      0.04489616	      0.00361176	     -0.04836880	      0.12730976	      0.08741575	     -0.00670639	     -0.00937756	     -0.04155190	     -0.06337520	     -0.15367316	     -0.18287290	      0.00000079	     -0.32847694	      0.00000060	     -0.00000086	     97.11167742	    163.57970663	     17.44142947	    -10.94113005	      2.34304757	     38.04486920	    -97.11167742	   -163.57970663	    -17.44142947	      4.45480829	     -2.85748636	      2.89497093	     23.58885092	     19.69161561	     10.81301400	     -3.91283370	     -0.53858817	      9.47203974	    -23.58885092	    -19.69161561	    -10.81301400	     -0.23510630	      0.27641273	      0.05424000	   -792.85047605	   -700.16283153	    223.90851310	    -16.05716950	     17.77437359	     -1.30270755	    792.85047605	    700.16283153	   -223.90851310	    103.66719051	    -14.33149194	    322.29195283	      0.00000000	      0.00000000	      0.00000000	      0.00000000	      0.00000000	      0.00000000	      0.00000000	      0.00000000	      0.00000000	      0.00000000	      0.00000000	      0.00000000	    191.03193915	     32.57475841	      0.00000000	   1081.19142166
      0.16625748	      0.01291216	      0.01765643	     57.87895076	     -4.74806742	      0.00000000	    599.15702693	    387.51234102	      0.00000000	      0.00000000	      0.00000000	      0.00000000	      0.00000000	      0.00000000	      0.00000000	      0.00000000	      0.00000001	      0.00000000	      0.03111477	      0.02384529	      0.03506710	      0.03250806	      0.05963552	      0.05923502	      0.05628428	      0.05242184	      0.04765112	      0.04275526	      0.01525851	      0.01651186	      0.06550154	      0.04489616	      0.00352429	     -0.04842282	      0.12772990	      0.08766986	     -0.00652174	     -0.00934017	     -0.04161076	     -0.06351435	     -0.15390089	     -0.18316667	      0.00000079	     -0.32847694	      0.00000060	     -0.00000086	     97.53742247	    163.94164734	     17.56563086	    -11.00250986	      2.35287545	     38.20958414	    -97.53742247	   -163.94164734	    -17.56563086	      4.46877108	     -2.87161911	      2.91206607	     23.12337658	     19.23371041	     10.68963179	     -3.87430818	     -0.52523998	      9.28252799	    -23.12337658	    -19.23371041	    -10.68963179	     -0.22694319	      0.26584995	      0.05584910	   -793.95923072	   -700.47126006	    225.20229445	    -16.07551940	     17.83255274	     -1.22659051	    793.95923072	    700.47126006	   -225.20229445	    104.19586080	    -14.35826124	    322.70466420	      0.00000000	      0.00000000	      0.00000000	      0.00000000	      0.00000000	      0.00000000	      0.00000000	      0.00000000	      0.00000000	      0.00000000	      0.00000000	      0.00000000	    191.56973639	     31.92012514	      0.00000000	   1082.47278009
      0.16659000	      0.01293189	      0.01772069	     58.05855002	     -4.66802568	      0.00000000	    602.54946301	    389.16057713	      0.00000000	      0.00000000	      0.00000000	      0.00000000	      0.00000000	      0.00000000	      0.00000000	      0.00000000	      0.00000001	      0.00000000	      0.03111069	      0.02384330	      0.03508690	      0.03251958	      0.05965239	      0.05923848	      0.05627915	      0.05240987	      0.04763152	      0.04273182	      0.01525851	      0.01651186	      0.06550154	      0.04489616	      0.00339265	     -0.04850230	      0.12836655	      0.08805539	     -0.00624068	     -0.00928230	     -0.04169823	     -0.06372832	     -0.15424895	     -0.18361449	      0.00000079	     -0.32847694	      0.00000060	     -0.00000086	     98.14862462	    163.59244234	     18.04043596	    -11.19524644	      2.36843549	     38.45404713	    -98.14862462	   -163.59244234	    -18.04043596	      4.47747653	     -2.89969266	      2.91133548	     23.27954607	     19.04157561	     10.51952695	     -3.80928003	     -0.52854630	      9.34511008	    -23.27954607	    -19.04157561	    -10.51952695	     -0.22695067	      0.27170248	      0.05192176	   -797.63654582	   -699.06321394	    225.82344254	    -16.03806580	     17.91362277	     -1.22231063	    797.63654582	    699.06321394	   -225.82344254	    104.41141981	    -14.42277822	    324.17433465	      0.00000000	      0.00000000	      0.00000000	      0.00000000	      0.00000000	      0.00000000	      0.00000000	      0.00000000	      0.00000000	      0.00000000	      0.00000000	      0.00000000	    191.62749551	     31.86187870	      0.00000000	   1084.39368474
      0.16690477	      0.01295046	      0.01778157	     58.22859207	     -4.56726034	      0.00000000	    605.73901674	    390.69905422	      0.00000000	      0.00000000	      0.00000000	      0.00000000	      0.00000000	      0.00000000	      0.00000000	      0.00000000	      0.00000001	      0.00000000	      0.03110690	      0.02384150	      0.03510554	      0.03253045	      0.05966838	      0.05924182	      0.05627442	      0.05239840	      0.04761287	      0.04270958	      0.01525851	      0.01651186	      0.06550154	      0.04489616	      0.00327045	     -0.04857388	      0.12896616	      0.08841888	     -0.00597437	     -0.00922641	     -0.04177875	     -0.06393321	     -0.15458008	     -0.18403934	      0.00000079	     -0.32847694	      0.00000060	     -0.00000086	     99.32463171	    163.11538827	     18.62693676	    -11.42869466	      2.39989160	     38.93522623	    -99.32463171	   -163.11538827	    -18.62693676	      4.48346419	     -2.94686934	      2.88877063	     23.37424325	     18.82508732	     10.39379755	     -3.76382652	     -0.52960605	      9.38244835	    -23.37424325	    -18.82508732	    -10.39379755	     -0.22454104	      0.27453161	      0.04883713	   -801.58242701	   -698.77155973	    225.85280911	    -16.00673841	     17.97931634	     -1.19588447	    801.58242701	    698.77155973	   -225.85280911	    104.40540561	    -14.48527754	    325.74510493	      0.00000000	      0.00000000	      0.00000000	      0.00000000	      0.00000000	      0.00000000	      0.00000000	      0.00000000	      0.00000000	      0.00000000	      0.00000000	      0.00000000	    191.88271190	     31.76114273	      0.00000000	   1087.11801170
